# xmcd
#
# Track frame offsets:
#	150
#	19825
#	39432
#	57227
#	79070
#	100655
#	119425
#	139082
#	160520
#	179047
#	199615
#	217682
#	237122
#	254817
#	259580
#	264355
#	270950
#	276175
#	283852
#	288330
#	292140
#	294177
#	299302
#	309670
#	314610
#	319370
#
# Disc length: 4364 seconds
#
# Revision: 1
# Processed by: cddbd v1.5.1PL0 Copyright (c) Steve Scherf et al.
# Submitted via: CDex 1.50Beta5
#
DISCID=90110a1a
DTITLE=松本梨香 - Last Message 仮面ライダー龍騎 コンプリートCD-BOX Disc 4
DYEAR=2003
DGENRE=
TTITLE0=松本梨香/Alive A life(オリジナル・カラオケ)
TTITLE1=松本梨香/reborn(オリジナル・カラオケ)
TTITLE2=きただにひろし/果てなき希望(オリジナル・カラオケ)
TTITLE3=秋山連(松田悟志)/Lonely Soldier(オリジナル・カラオケ)
TTITLE4=北岡秀一(涼平)/消えない虹(オリジナル・カラオケ)
TTITLE5=朝倉威(萩野崇)/spinnin’around(オリジナル・カラオケ)
TTITLE6=神崎優衣(杉山彩乃)/INORI(オリジナル・カラオケ)
TTITLE7=北岡秀一(涼平)/Dear Friend(オリジナル・カラオケ)
TTITLE8=高尾直樹/Final edition ドラグランザー・ダークレイダー(オリジナル・カラオケ)
TTITLE9=伊藤たかゆき/最後の願い(オリジナル・カラオケ)
TTITLE10=寺田恵子/果てしない炎の中へ(カラオケ)
TTITLE11=きただにひろし/Revolution(オリジナル・カラオケ)
TTITLE12=松本梨香/Alive A life(Advent Mix/オリジナル・カラオケ)
TTITLE13=TVサントラ/Option A
TTITLE14=TVサントラ/Option B
TTITLE15=TVサントラ/Option C
TTITLE16=TVサントラ/Option D
TTITLE17=TVサントラ/Option E
TTITLE18=TVサントラ/Option F
TTITLE19=TVサントラ/Option G
TTITLE20=TVサントラ/Option H
TTITLE21=TVサントラ/Option I
TTITLE22=TVサントラ/Option J
TTITLE23=TVサントラ/Option K
TTITLE24=TVサントラ/モンスター出現
TTITLE25=TVサントラ/契約B
EXTD=
EXTT0=
EXTT1=
EXTT2=
EXTT3=
EXTT4=
EXTT5=
EXTT6=
EXTT7=
EXTT8=
EXTT9=
EXTT10=
EXTT11=
EXTT12=
EXTT13=
EXTT14=
EXTT15=
EXTT16=
EXTT17=
EXTT18=
EXTT19=
EXTT20=
EXTT21=
EXTT22=
EXTT23=
EXTT24=
EXTT25=
PLAYORDER=
